<?xml version="1.0" encoding="utf-8"?>
<!-- Generator: Adobe Illustrator 25.4.1, SVG Export Plug-In . SVG Version: 6.00 Build 0)  -->
<svg version="1.1" id="Layer_1" xmlns="http://www.w3.org/2000/svg" xmlns:xlink="http://www.w3.org/1999/xlink" x="0px" y="0px"
	 width="529.7908325px" height="132.8703613px" viewBox="0 0 529.7908325 132.8703613"
	 style="enable-background:new 0 0 529.7908325 132.8703613;" xml:space="preserve">
<style type="text/css">
	.st0{fill:#FFFFFF;}
	.st1{fill:url(#SVGID_1_);}
</style>
<g>
	<g>
		<g>
			<path class="st0" d="M145.1785278,66.2155838V43.0114784h-9.1513672v-5.3916016h24.9199219v5.3916016h-9.1513672v23.2041054
				H145.1785278z"/>
			<path class="st0" d="M161.5603638,66.2155838l12.7041016-28.5957069h6.5361328l12.828125,28.5957069h-6.9453125
				l-10.4990234-25.2460976h2.6552734l-10.4980469,25.2460976H161.5603638z M167.9734497,60.0876503l1.6748047-5.0244141h14.7880859
				l1.7158203,5.0244141H167.9734497z"/>
			<path class="st0" d="M198.8572388,66.2155838V37.6198769h6.6591797v23.203125h14.2568359v5.3925819H198.8572388z"/>
			<path class="st0" d="M232.3543091,60.9050331h15.5644531v5.3105507h-22.1416016V37.6198769h21.6103516v5.3105469h-15.0332031
				V60.9050331z M231.8640747,49.0983925h13.7666016v5.1884766h-13.7666016V49.0983925z"/>
			<path class="st0" d="M255.4353638,66.2155838V37.6198769h5.4746094l16.8710938,20.5888672h-2.6552734V37.6198769h6.5361328
				v28.5957069h-5.4736328l-16.8720703-20.588871h2.6552734v20.588871H255.4353638z"/>
			<path class="st0" d="M296.6140747,66.2155838V43.0114784h-9.1513672v-5.3916016h24.9199219v5.3916016h-9.1513672v23.2041054
				H296.6140747z"/>
			<path class="st0" d="M327.4168091,66.7058182c-2.2871094,0-4.4873047-0.3066406-6.5976562-0.9189453
				c-2.1103516-0.6132812-3.8056641-1.4091797-5.0859375-2.3896523l2.2470703-4.984375
				c1.1982422,0.8720703,2.6416016,1.5869141,4.3300781,2.1445312c1.6884766,0.5585938,3.390625,0.8378906,5.1064453,0.8378906
				c1.3076172,0,2.3623047-0.1357422,3.1660156-0.4082031c0.8027344-0.2724609,1.3955078-0.6337891,1.7773438-1.0830078
				c0.3808594-0.4492188,0.5722656-0.9736328,0.5722656-1.5732422c0-0.7617188-0.3007812-1.3681641-0.8994141-1.8173828
				s-1.3955078-0.8173828-2.3896484-1.1035156c-0.9941406-0.2851562-2.0771484-0.5576172-3.2480469-0.8164062
				s-2.3486328-0.5722656-3.5332031-0.9394531c-1.1845703-0.3681641-2.2744141-0.8583984-3.2685547-1.4707031
				c-0.9941406-0.6132812-1.7832031-1.4160156-2.3691406-2.4101562s-0.8779297-2.2402344-0.8779297-3.7382812
				c0-1.6337891,0.4355469-3.125,1.3066406-4.4736328c0.8720703-1.3476562,2.1992188-2.4228516,3.9833984-3.2265625
				c1.7832031-0.8037109,4.0234375-1.2050781,6.7197266-1.2050781c1.7978516,0,3.5751953,0.2177734,5.3310547,0.6533203
				c1.7568359,0.4355469,3.2890625,1.0625,4.5966797,1.8789062l-2.0839844,4.984375
				c-1.2802734-0.7353516-2.6005859-1.2871094-3.9628906-1.6542969c-1.3613281-0.3681641-2.6689453-0.5517578-3.9208984-0.5517578
				c-1.3076172,0-2.3564453,0.1425781-3.1464844,0.4287109s-1.3681641,0.6738281-1.7353516,1.1640625
				c-0.3681641,0.4902344-0.5517578,1.0351562-0.5517578,1.6347656c0,0.7626953,0.2988281,1.375,0.8984375,1.8378906
				c0.5986328,0.4628906,1.3886719,0.8242188,2.3691406,1.0820312c0.9804688,0.2597656,2.0703125,0.5185547,3.2685547,0.7763672
				c1.1982422,0.2597656,2.3828125,0.5791016,3.5537109,0.9599609c1.1708984,0.3818359,2.2470703,0.8652344,3.2275391,1.4501953
				c0.9804688,0.5859375,1.7773438,1.3759766,2.3896484,2.3701172c0.6132812,0.9941406,0.9199219,2.2255859,0.9199219,3.6962891
				c0,1.6074219-0.4433594,3.078125-1.328125,4.4121094c-0.8857422,1.3349648-2.2265625,2.4101601-4.0234375,3.2275429
				C332.3601685,66.2976151,330.1130981,66.7058182,327.4168091,66.7058182z"/>
			<path class="st0" d="M366.7556763,66.2155838h-6.6591797V37.6198769h21.6103516v5.3105469h-14.9511719V66.2155838z
				 M366.2244263,50.4880409h13.7255859v5.3105469h-13.7255859V50.4880409z"/>
			<path class="st0" d="M401.1521606,66.7058182c-4.0585938,0-7.2304688-1.1298828-9.5185547-3.3906288
				c-2.2880859-2.2607422-3.4316406-5.5009766-3.4316406-9.7226562V37.6198769h6.6591797v15.8095703
				c0,2.6953125,0.5576172,4.6503906,1.6748047,5.8613281c1.1162109,1.2128906,2.6689453,1.8183594,4.6572266,1.8183594
				c2.0146484,0,3.5800781-0.6054688,4.6972656-1.8183594c1.1171875-1.2109375,1.6748047-3.1660156,1.6748047-5.8613281V37.6198769
				h6.4960938v15.9726562c0,4.2216797-1.1445312,7.4619141-3.4316406,9.7226562
				C408.3416138,65.5759354,405.1824341,66.7058182,401.1521606,66.7058182z"/>
			<path class="st0" d="M432.321106,66.7058182c-2.2871094,0-4.4873047-0.3066406-6.5976562-0.9189453
				c-2.1103516-0.6132812-3.8056641-1.4091797-5.0859375-2.3896523l2.2470703-4.984375
				c1.1982422,0.8720703,2.6416016,1.5869141,4.3300781,2.1445312c1.6884766,0.5585938,3.390625,0.8378906,5.1064453,0.8378906
				c1.3076172,0,2.3623047-0.1357422,3.1660156-0.4082031c0.8027344-0.2724609,1.3955078-0.6337891,1.7773438-1.0830078
				c0.3808594-0.4492188,0.5722656-0.9736328,0.5722656-1.5732422c0-0.7617188-0.3007812-1.3681641-0.8994141-1.8173828
				s-1.3955078-0.8173828-2.3896484-1.1035156c-0.9941406-0.2851562-2.0771484-0.5576172-3.2480469-0.8164062
				s-2.3486328-0.5722656-3.5332031-0.9394531c-1.1845703-0.3681641-2.2744141-0.8583984-3.2685547-1.4707031
				c-0.9941406-0.6132812-1.7832031-1.4160156-2.3691406-2.4101562s-0.8779297-2.2402344-0.8779297-3.7382812
				c0-1.6337891,0.4355469-3.125,1.3066406-4.4736328c0.8720703-1.3476562,2.1992188-2.4228516,3.9833984-3.2265625
				c1.7832031-0.8037109,4.0234375-1.2050781,6.7197266-1.2050781c1.7978516,0,3.5751953,0.2177734,5.3310547,0.6533203
				c1.7568359,0.4355469,3.2890625,1.0625,4.5966797,1.8789062l-2.0839844,4.984375
				c-1.2802734-0.7353516-2.6005859-1.2871094-3.9628906-1.6542969c-1.3613281-0.3681641-2.6689453-0.5517578-3.9208984-0.5517578
				c-1.3076172,0-2.3564453,0.1425781-3.1464844,0.4287109s-1.3681641,0.6738281-1.7353516,1.1640625
				c-0.3681641,0.4902344-0.5517578,1.0351562-0.5517578,1.6347656c0,0.7626953,0.2988281,1.375,0.8984375,1.8378906
				c0.5986328,0.4628906,1.3886719,0.8242188,2.3691406,1.0820312c0.9804688,0.2597656,2.0703125,0.5185547,3.2685547,0.7763672
				c1.1982422,0.2597656,2.3828125,0.5791016,3.5537109,0.9599609c1.1708984,0.3818359,2.2470703,0.8652344,3.2275391,1.4501953
				c0.9804688,0.5859375,1.7773438,1.3759766,2.3896484,2.3701172c0.6132812,0.9941406,0.9199219,2.2255859,0.9199219,3.6962891
				c0,1.6074219-0.4433594,3.078125-1.328125,4.4121094c-0.8857422,1.3349648-2.2265625,2.4101601-4.0234375,3.2275429
				C437.2644653,66.2976151,435.017395,66.7058182,432.321106,66.7058182z"/>
			<path class="st0" d="M451.1931763,66.2155838V37.6198769h6.6591797v28.5957069H451.1931763z"/>
			<path class="st0" d="M480.7283325,66.7058182c-2.2607422,0-4.3447266-0.3681641-6.25-1.1025391
				c-1.9072266-0.7353516-3.5683594-1.7705078-4.984375-3.1054726c-1.4160156-1.3339844-2.5126953-2.9003906-3.2880859-4.6972656
				c-0.7763672-1.7978516-1.1650391-3.7587891-1.1650391-5.8828125c0-2.1513672,0.3886719-4.1191406,1.1650391-5.9033203
				c0.7753906-1.7832031,1.8720703-3.3427734,3.2880859-4.6777344c1.4160156-1.3339844,3.0703125-2.3691406,4.9638672-3.1044922
				c1.8925781-0.7353516,3.96875-1.1025391,6.2294922-1.1025391s4.3369141,0.3613281,6.2294922,1.0820312
				c1.8925781,0.7216797,3.5478516,1.75,4.9638672,3.0839844c1.4160156,1.3349609,2.5126953,2.9013672,3.2890625,4.6982422
				c0.7753906,1.7978516,1.1640625,3.7724609,1.1640625,5.9238281c0,2.1240234-0.3886719,4.0917969-1.1640625,5.9033203
				c-0.7763672,1.8115234-1.8730469,3.3837891-3.2890625,4.7177734c-1.4160156,1.3349648-3.0712891,2.3632851-4.9638672,3.0839882
				C485.024231,66.3444901,482.9607544,66.7058182,480.7283325,66.7058182z M480.6873169,61.1091347
				c1.2802734,0,2.4580078-0.2246094,3.5341797-0.6738281c1.0751953-0.4492188,2.0214844-1.0888672,2.8388672-1.9199219
				s1.4501953-1.7978516,1.8994141-2.9003906c0.4492188-1.1035156,0.6738281-2.3349609,0.6738281-3.6972656
				c0-1.3613281-0.2246094-2.5947266-0.6738281-3.6972656s-1.0820312-2.0693359-1.8994141-2.9003906
				c-0.8173828-0.8300781-1.7636719-1.4707031-2.8388672-1.9199219c-1.0761719-0.4492188-2.2539062-0.6738281-3.5341797-0.6738281
				s-2.4648438,0.2246094-3.5537109,0.6738281c-1.0898438,0.4492188-2.0361328,1.0898438-2.8398438,1.9199219
				c-0.8037109,0.8310547-1.4296875,1.7978516-1.8789062,2.9003906s-0.6738281,2.3359375-0.6738281,3.6972656
				c0,1.3623047,0.2246094,2.59375,0.6738281,3.6972656c0.4492188,1.1025391,1.0751953,2.0693359,1.8789062,2.9003906
				s1.75,1.4707031,2.8398438,1.9199219C478.2224731,60.8845253,479.4070435,61.1091347,480.6873169,61.1091347z"/>
			<path class="st0" d="M503.56427,66.2155838V37.6198769h5.4746094l16.8710938,20.5888672h-2.6552734V37.6198769h6.5361328
				v28.5957069h-5.4736328l-16.8720703-20.588871h2.6552734v20.588871H503.56427z"/>
		</g>
		<g>
			<path class="st0" d="M139.1337738,95.604538l3.1659546-15.8338013h2.2631378l-3.1673126,15.8338013H139.1337738z"/>
			<path class="st0" d="M155.4891205,83.5031433c1.0553131,0,1.9376831,0.2110672,2.6457672,0.633194
				c0.7094421,0.4221191,1.2023773,1.0362473,1.4815216,1.8437347c0.2791595,0.8061218,0.3063812,1.77565,0.0803528,2.9058609
				l-1.3358307,6.718605h-2.1705475l1.3344727-6.718605c0.2260284-1.0852737,0.1198273-1.9295273-0.317276-2.5327606
				c-0.4371033-0.6032257-1.2214508-0.9055252-2.3516541-0.9055252c-1.1615295,0-2.1269684,0.3131943-2.8963318,0.9395676
				c-0.7679901,0.6250229-1.2813568,1.58638-1.5373535,2.884079l-1.2663727,6.3332443h-2.1719055l2.3747864-11.9883728h2.0806732
				l-0.6781158,3.4382858l-0.4071503-0.9273148c0.5732727-0.9055328,1.300415-1.5686798,2.1828003-1.990799
				C153.419342,83.7142105,154.4024811,83.5031433,155.4891205,83.5031433z"/>
			<path class="st0" d="M172.0228271,83.5031433c1.0553131,0,1.9376984,0.2110672,2.6457825,0.633194
				c0.7094421,0.4221191,1.2023773,1.0362473,1.4815216,1.8437347c0.2791443,0.8061218,0.3063812,1.77565,0.0803375,2.9058609
				l-1.3358154,6.718605h-2.1705475l1.3344574-6.718605c0.2260437-1.0852737,0.1198273-1.9295273-0.317276-2.5327606
				c-0.4371033-0.6032257-1.2214355-0.9055252-2.3516388-0.9055252c-1.1615295,0-2.1269684,0.3131943-2.8963318,0.9395676
				c-0.7680054,0.6250229-1.2813568,1.58638-1.5373535,2.884079l-1.2663879,6.3332443h-2.1719055l2.3748016-11.9883728h2.0806732
				l-0.6781158,3.4382858l-0.4071503-0.9273148c0.5732727-0.9055328,1.300415-1.5686798,2.1828003-1.990799
				C169.9530487,83.7142105,170.936203,83.5031433,172.0228271,83.5031433z"/>
			<path class="st0" d="M185.6629486,95.740715c-1.1465454,0-2.1378632-0.2151489-2.9753113-0.6454468
				c-0.8374481-0.4289322-1.4897003-1.0321655-1.9567566-1.8096924c-0.4670563-0.7761688-0.7012787-1.6844254-0.7012787-2.7247543
				c0-1.3576126,0.3023071-2.568161,0.9055328-3.6316452c0.6032257-1.0621262,1.4365845-1.8995667,2.4987183-2.509613
				c1.0634766-0.6113968,2.2740326-0.91642,3.6302795-0.91642c1.1315613,0,2.1188049,0.2110672,2.9644165,0.633194
				c0.8442535,0.4221191,1.4951324,1.0171814,1.9553986,1.7865448c0.4602509,0.7693558,0.6903687,1.681694,0.6903687,2.7370071
				c0,1.3576126-0.3022919,2.568161-0.9041595,3.6302795c-0.603241,1.0634918-1.4297791,1.905014-2.4769287,2.5232239
				C188.2447205,95.4316025,187.0341797,95.740715,185.6629486,95.740715z M185.79776,93.8397827
				c0.9055176,0,1.7116394-0.2178726,2.4210968-0.6549759c0.7080688-0.4384689,1.2622833-1.0376129,1.6626282-1.7987976
				c0.3989716-0.7611923,0.5991364-1.6326752,0.5991364-2.6130981c0-1.0553131-0.3090973-1.8805008-0.9273071-2.4769287
				c-0.6195679-0.5950623-1.5005951-0.8932724-2.6471405-0.8932724c-0.8891907,0-1.6885071,0.2151489-2.3979492,0.6454468
				c-0.7080841,0.4289322-1.2663727,1.0253601-1.6735229,1.7865448s-0.6100464,1.6394806-0.6100464,2.6348801
				c0,1.0403366,0.3077545,1.8628006,0.9273224,2.4660339C183.7701874,93.5388489,184.6511993,93.8397827,185.79776,93.8397827z"/>
			<path class="st0" d="M198.3512268,95.604538l-2.8731689-11.9883728h2.1719055l2.5327454,10.8568039h-1.0852661
				l6.8997192-10.8568039h2.1936951l-7.6227875,11.9883728H198.3512268z"/>
			<path class="st0" d="M213.9140625,95.740715c-1.010376,0-1.9145508-0.2069778-2.7138672-0.6222992
				c-0.7993164-0.4153137-1.428421-1.0062943-1.8886719-1.77565c-0.4602509-0.7693634-0.6903687-1.6966782-0.6903687-2.7819443
				c0-1.0253601,0.1702118-1.969017,0.5092621-2.8282471c0.3390656-0.85923,0.8143005-1.6054382,1.425705-2.2386322
				c0.6100311-0.6331863,1.330368-1.1233978,2.1596527-1.4706268c0.8292694-0.3472366,1.7266235-0.5201721,2.6920624-0.5201721
				c1.0403442,0,1.9227142,0.1811066,2.6457825,0.5433197c0.7244263,0.3608475,1.2813568,0.8932724,1.674881,1.5945435
				c0.3908081,0.7012787,0.5868988,1.5564194,0.5868988,2.566803c0,1.4774399-0.2559967,2.786026-0.7680054,3.924408
				c-0.5133514,1.1383743-1.2486725,2.0248413-2.2059479,2.6580276
				C216.3841858,95.423439,215.2417145,95.740715,213.9140625,95.740715z M214.3892975,93.8397827
				c0.9055176,0,1.7116547-0.2178726,2.4210968-0.6549759c0.7080841-0.4384689,1.2622833-1.0376129,1.6626282-1.7987976
				c0.3989716-0.7611923,0.5991516-1.6326752,0.5991516-2.6130981c0-1.0553131-0.3091125-1.8805008-0.9273224-2.4769287
				c-0.6195679-0.5950623-1.5005951-0.8932724-2.6471405-0.8932724c-0.8891907,0-1.6885071,0.2151489-2.3979492,0.6454468
				c-0.7080841,0.4289322-1.2663727,1.0253601-1.6735229,1.7865448s-0.6100311,1.6394806-0.6100311,2.6348801
				c0,1.0403366,0.3077393,1.8628006,0.9273071,2.4660339C212.3617249,93.5388489,213.2427521,93.8397827,214.3892975,93.8397827z
				 M217.8507233,95.604538l0.633194-3.0992203l0.723053-2.7819443l0.2941284-2.850029l0.634552-3.2571793h2.1705475
				l-2.3748016,11.9883728H217.8507233z"/>
			<path class="st0" d="M225.495285,85.40271l0.3390656-1.7865448h7.6677094l-0.3622131,1.7865448H225.495285z
				 M229.3175659,95.740715c-0.723053,0-1.3453522-0.1593246-1.8655243-0.475235
				c-0.5201569-0.317276-0.8905487-0.7693558-1.1084137-1.3576126c-0.2192383-0.5882492-0.2532806-1.2813568-0.1021271-2.0806732
				l2.1719055-10.8350143h2.1705475l-2.1705475,10.7900772c-0.1062164,0.6481705-0.0422211,1.1642532,0.1920013,1.549614
				c0.2328491,0.3839951,0.6740417,0.5759964,1.3235626,0.5759964c0.3009338,0,0.6018677-0.0490189,0.9041748-0.1470642
				c0.3022919-0.0980377,0.5732727-0.2369308,0.8142853-0.4180374l0.4520874,1.6503754
				c-0.4071503,0.2873154-0.8551483,0.4833984-1.3453522,0.5882492
				C230.2639465,95.6876068,229.7846375,95.740715,229.3175659,95.740715z"/>
			<path class="st0" d="M235.697113,95.604538l2.3748016-11.9883728h2.1719055l-2.3748016,11.9883728H235.697113z
				 M239.791748,81.3094559c-0.4071503,0-0.735321-0.128006-0.9845123-0.3853607
				c-0.2491913-0.2560043-0.3731079-0.5651093-0.3731079-0.9273148c0-0.4221268,0.1429749-0.7802582,0.4289398-1.074379
				c0.2873077-0.2941284,0.664505-0.4411926,1.1315613-0.4411926c0.3921661,0,0.7203369,0.1239166,0.9845123,0.3731079
				c0.2628021,0.2491837,0.3948975,0.5474014,0.3948975,0.8932724c0,0.4684219-0.1429901,0.8456116-0.4289398,1.1315689
				C240.6577759,81.1651154,240.2737885,81.3094559,239.791748,81.3094559z"/>
			<path class="st0" d="M248.7489777,95.740715c-1.1465454,0-2.1378632-0.2151489-2.9753113-0.6454468
				c-0.8374329-0.4289322-1.4896851-1.0321655-1.9567566-1.8096924c-0.4670563-0.7761688-0.7012634-1.6844254-0.7012634-2.7247543
				c0-1.3576126,0.3022919-2.568161,0.9055176-3.6316452c0.603241-1.0621262,1.4365997-1.8995667,2.4987183-2.509613
				c1.0634918-0.6113968,2.2740326-0.91642,3.6302795-0.91642c1.1315765,0,2.1188049,0.2110672,2.9644165,0.633194
				c0.8442535,0.4221191,1.4951477,1.0171814,1.9553986,1.7865448c0.4602509,0.7693558,0.6903839,1.681694,0.6903839,2.7370071
				c0,1.3576126-0.3023071,2.568161-0.9041748,3.6302795c-0.6032257,1.0634918-1.4297791,1.905014-2.4769287,2.5232239
				C251.3307495,95.4316025,250.1202087,95.740715,248.7489777,95.740715z M248.8837891,93.8397827
				c0.9055328,0,1.7116547-0.2178726,2.4210968-0.6549759c0.7080841-0.4384689,1.2622986-1.0376129,1.6626282-1.7987976
				c0.3989716-0.7611923,0.5991516-1.6326752,0.5991516-2.6130981c0-1.0553131-0.3091125-1.8805008-0.9273224-2.4769287
				c-0.6195679-0.5950623-1.5005798-0.8932724-2.6471405-0.8932724c-0.8891754,0-1.6884918,0.2151489-2.397934,0.6454468
				c-0.7080841,0.4289322-1.2663879,1.0253601-1.6735382,1.7865448c-0.407135,0.7611847-0.6100311,1.6394806-0.6100311,2.6348801
				c0,1.0403366,0.3077393,1.8628006,0.9273071,2.4660339C246.8562164,93.5388489,247.7372437,93.8397827,248.8837891,93.8397827z"
				/>
			<path class="st0" d="M267.1373291,83.5031433c1.0553284,0,1.9376831,0.2110672,2.6457825,0.633194
				c0.7094421,0.4221191,1.2023621,1.0362473,1.4815063,1.8437347c0.2791748,0.8061218,0.3063965,1.77565,0.0803528,2.9058609
				l-1.3358154,6.718605h-2.1705627l1.3344727-6.718605c0.2260437-1.0852737,0.1198425-1.9295273-0.3172607-2.5327606
				c-0.4371338-0.6032257-1.2214661-0.9055252-2.3516541-0.9055252c-1.1615295,0-2.1269836,0.3131943-2.8963318,0.9395676
				c-0.7680054,0.6250229-1.2813721,1.58638-1.5373535,2.884079l-1.2663879,6.3332443h-2.1719055l2.3747864-11.9883728h2.0806885
				l-0.6781311,3.4382858l-0.407135-0.9273148c0.5732727-0.9055328,1.300415-1.5686798,2.1828003-1.990799
				C265.0675354,83.7142105,266.0506897,83.5031433,267.1373291,83.5031433z"/>
			<path class="st0" d="M282.6756592,85.40271l0.3390503-1.7865448h7.6677246l-0.3622131,1.7865448H282.6756592z
				 M286.4979248,95.740715c-0.723053,0-1.3453369-0.1593246-1.865509-0.475235
				c-0.5201721-0.317276-0.890564-0.7693558-1.108429-1.3576126c-0.2192383-0.5882492-0.2532654-1.2813568-0.1021423-2.0806732
				l2.1719055-10.8350143h2.1705627L285.59375,91.7822571c-0.1062012,0.6481705-0.0422058,1.1642532,0.1920166,1.549614
				c0.2328491,0.3839951,0.6740417,0.5759964,1.3235779,0.5759964c0.3009338,0,0.6018677-0.0490189,0.9041443-0.1470642
				c0.3023071-0.0980377,0.5732727-0.2369308,0.8143005-0.4180374l0.4520874,1.6503754
				c-0.407135,0.2873154-0.8551331,0.4833984-1.3453674,0.5882492
				C287.4443054,95.6876068,286.9649963,95.740715,286.4979248,95.740715z"/>
			<path class="st0" d="M301.3826294,83.5031433c1.0553284,0,1.9376831,0.2110672,2.6457825,0.633194
				c0.7094421,0.4221191,1.2023621,1.0362473,1.4815369,1.8437347c0.2791443,0.8061218,0.306366,1.77565,0.0803223,2.9058609
				l-1.3358154,6.718605h-2.1705627l1.3344727-6.718605c0.2260437-1.0852737,0.1198425-1.9295273-0.3172607-2.5327606
				c-0.4371033-0.6032257-1.2214661-0.9055252-2.3516541-0.9055252c-1.1615295,0-2.1269836,0.3131943-2.8963318,0.9395676
				c-0.7680054,0.6250229-1.2813721,1.58638-1.5373535,2.884079l-1.2663879,6.3332443h-2.1719055l3.3470459-16.7842636h2.1719055
				l-1.6517334,8.2341766l-0.4970093-0.9273148c0.5732727-0.9055328,1.300415-1.5686798,2.1828003-1.990799
				C299.3128662,83.7142105,300.29599,83.5031433,301.3826294,83.5031433z"/>
			<path class="st0" d="M314.6809692,95.740715c-1.010376,0-1.9145508-0.2069778-2.7138672-0.6222992
				c-0.7993164-0.4153137-1.4284363-1.0062943-1.8886719-1.77565c-0.4602661-0.7693634-0.6903687-1.6966782-0.6903687-2.7819443
				c0-1.0253601,0.1701965-1.969017,0.5092468-2.8282471c0.3390808-0.85923,0.8143005-1.6054382,1.4257202-2.2386322
				c0.6100159-0.6331863,1.3303528-1.1233978,2.1596375-1.4706268c0.8292847-0.3472366,1.7266235-0.5201721,2.6920776-0.5201721
				c1.0403442,0,1.922699,0.1811066,2.6457825,0.5433197c0.7244263,0.3608475,1.2813416,0.8932724,1.6748657,1.5945435
				c0.3908081,0.7012787,0.5869141,1.5564194,0.5869141,2.566803c0,1.4774399-0.256012,2.786026-0.7680054,3.924408
				c-0.5133667,1.1383743-1.2486877,2.0248413-2.2059631,2.6580276
				C317.1510925,95.423439,316.008606,95.740715,314.6809692,95.740715z M315.156189,93.8397827
				c0.9055176,0,1.7116699-0.2178726,2.4211121-0.6549759c0.7080688-0.4384689,1.2622681-1.0376129,1.6626282-1.7987976
				c0.3989563-0.7611923,0.5991516-1.6326752,0.5991516-2.6130981c0-1.0553131-0.3091125-1.8805008-0.9273376-2.4769287
				c-0.6195679-0.5950623-1.5005798-0.8932724-2.6471252-0.8932724c-0.8891907,0-1.6885071,0.2151489-2.3979492,0.6454468
				c-0.7080994,0.4289322-1.2663879,1.0253601-1.6735229,1.7865448c-0.4071655,0.7611847-0.6100464,1.6394806-0.6100464,2.6348801
				c0,1.0403366,0.3077393,1.8628006,0.9273071,2.4660339C313.1286316,93.5388489,314.0096436,93.8397827,315.156189,93.8397827z
				 M318.6176147,95.604538l0.6332092-3.0992203l0.723053-2.7819443l0.2941284-2.850029l0.634552-3.2571793h2.1705322
				l-2.3747864,11.9883728H318.6176147z"/>
			<path class="st0" d="M326.2635498,85.40271l0.3390503-1.7865448h7.6677246l-0.3622131,1.7865448H326.2635498z
				 M330.0858459,95.740715c-0.7230835,0-1.3453674-0.1593246-1.8655396-0.475235
				c-0.5201721-0.317276-0.8905334-0.7693558-1.108429-1.3576126c-0.2192078-0.5882492-0.2532654-1.2813568-0.1021118-2.0806732
				l2.1719055-10.8350143h2.1705322l-2.1705322,10.7900772c-0.1062317,0.6481705-0.0422058,1.1642532,0.1919861,1.549614
				c0.2328491,0.3839951,0.6740417,0.5759964,1.3235779,0.5759964c0.3009338,0,0.6018677-0.0490189,0.9041748-0.1470642
				c0.3022766-0.0980377,0.5732727-0.2369308,0.8143005-0.4180374l0.4520569,1.6503754
				c-0.407135,0.2873154-0.8551331,0.4833984-1.3453369,0.5882492
				C331.0322266,95.6876068,330.552887,95.740715,330.0858459,95.740715z"/>
			<path class="st0" d="M343.9737854,95.604538l3.1659241-15.8338013h1.8328552l4.7496033,11.9883728l-0.9722595-0.0231476
				l9.2962952-11.9652252h1.9458618l-3.1672974,15.8338013h-2.1705322l2.5109558-12.4867554l0.565094,0.0463028
				l-8.2559509,10.5177383h-1.0403442l-4.2757263-10.5640411l0.4752502,0.0680847l-2.4878235,12.4186707H343.9737854z"/>
			<path class="st0" d="M371.6829224,95.740715c-1.010376,0-1.9145203-0.2069778-2.7138367-0.6222992
				c-0.7993164-0.4153137-1.4284363-1.0062943-1.8886719-1.77565c-0.4602661-0.7693634-0.6903992-1.6966782-0.6903992-2.7819443
				c0-1.0253601,0.1702271-1.969017,0.5092773-2.8282471c0.3390808-0.85923,0.8143005-1.6054382,1.4256897-2.2386322
				c0.6100464-0.6331863,1.3303833-1.1233978,2.159668-1.4706268c0.8292542-0.3472366,1.7266235-0.5201721,2.6920776-0.5201721
				c1.0403137,0,1.922699,0.1811066,2.645752,0.5433197c0.7244263,0.3608475,1.2813721,0.8932724,1.6748962,1.5945435
				c0.3908081,0.7012787,0.5868835,1.5564194,0.5868835,2.566803c0,1.4774399-0.2559814,2.786026-0.7679749,3.924408
				c-0.5133667,1.1383743-1.2486877,2.0248413-2.2059631,2.6580276
				C374.1530457,95.423439,373.0105896,95.740715,371.6829224,95.740715z M372.1581726,93.8397827
				c0.9055176,0,1.7116394-0.2178726,2.4210815-0.6549759c0.7080994-0.4384689,1.2622986-1.0376129,1.6626282-1.7987976
				c0.3989868-0.7611923,0.5991516-1.6326752,0.5991516-2.6130981c0-1.0553131-0.309082-1.8805008-0.9273071-2.4769287
				c-0.6195679-0.5950623-1.5005798-0.8932724-2.6471252-0.8932724c-0.8891907,0-1.6885071,0.2151489-2.3979492,0.6454468
				c-0.7080994,0.4289322-1.2663879,1.0253601-1.6735229,1.7865448c-0.4071655,0.7611847-0.6100464,1.6394806-0.6100464,2.6348801
				c0,1.0403366,0.3077393,1.8628006,0.9273071,2.4660339C370.1306152,93.5388489,371.0116272,93.8397827,372.1581726,93.8397827z
				 M375.6195984,95.604538l0.6331787-3.0992203l0.7230835-2.7819443l0.2941284-2.850029l0.634552-3.2571793h2.1705322
				l-2.3747864,11.9883728H375.6195984z"/>
			<path class="st0" d="M383.2641602,85.40271l0.3390808-1.7865448h7.6676941l-0.3622131,1.7865448H383.2641602z
				 M387.0864563,95.740715c-0.7230835,0-1.3453674-0.1593246-1.8655396-0.475235
				c-0.5201721-0.317276-0.8905334-0.7693558-1.108429-1.3576126c-0.2192078-0.5882492-0.2532654-1.2813568-0.1021118-2.0806732
				l2.1719055-10.8350143h2.1705322l-2.1705322,10.7900772c-0.1062012,0.6481705-0.0422058,1.1642532,0.1919861,1.549614
				c0.2328491,0.3839951,0.6740417,0.5759964,1.3235779,0.5759964c0.3009338,0,0.6018677-0.0490189,0.9041748-0.1470642
				c0.3022766-0.0980377,0.5732727-0.2369308,0.8143005-0.4180374l0.4520569,1.6503754
				c-0.407135,0.2873154-0.8551331,0.4833984-1.3453369,0.5882492
				C388.0328369,95.6876068,387.5534973,95.740715,387.0864563,95.740715z"/>
			<path class="st0" d="M393.4428406,85.40271l0.3390808-1.7865448h7.6676941l-0.3622131,1.7865448H393.4428406z
				 M397.2651367,95.740715c-0.7230835,0-1.3453674-0.1593246-1.8655396-0.475235
				c-0.5201721-0.317276-0.8905334-0.7693558-1.108429-1.3576126c-0.2192078-0.5882492-0.2532654-1.2813568-0.1021118-2.0806732
				l2.1719055-10.8350143h2.1705322l-2.1705322,10.7900772c-0.1062012,0.6481705-0.0422058,1.1642532,0.1919861,1.549614
				c0.2328491,0.3839951,0.6740417,0.5759964,1.3235779,0.5759964c0.3009338,0,0.6018677-0.0490189,0.9041748-0.1470642
				c0.3022766-0.0980377,0.5732727-0.2369308,0.8143005-0.4180374l0.4520569,1.6503754
				c-0.407135,0.2873154-0.8551331,0.4833984-1.3453369,0.5882492
				C398.2115173,95.6876068,397.7321777,95.740715,397.2651367,95.740715z"/>
			<path class="st0" d="M408.9607239,95.740715c-1.1764832,0-2.1950378-0.2151489-3.0542603-0.6454468
				c-0.8592529-0.4289322-1.5237427-1.0321655-1.9908142-1.8096924c-0.4670715-0.7761688-0.7012634-1.6925888-0.7012634-2.7479095
				c0-1.357605,0.2941284-2.5640717,0.8823853-3.6193848c0.5882263-1.0553131,1.3916321-1.8886719,2.4088135-2.4987183
				c1.0185547-0.6113968,2.1759949-0.91642,3.4723511-0.91642c1.0852661,0,2.0275574,0.2069778,2.8282471,0.6222992
				c0.7979431,0.4139557,1.4202271,1.0062943,1.865509,1.77565c0.445282,0.7679977,0.6672363,1.6966705,0.6672363,2.7819443
				c0,0.2709808-0.0149841,0.5460434-0.0449524,0.8251877c-0.031311,0.2791519-0.0680847,0.5392303-0.1130066,0.7802505h-10.3829346
				l0.2709656-1.5836487h9.0716248l-0.8823853,0.5433197c0.1348267-0.8442535,0.0749207-1.5564194-0.1810913-2.1378632
				c-0.2573547-0.5800858-0.6604309-1.0253601-1.2105408-1.334465c-0.5501404-0.3091049-1.2105713-0.4629745-1.9785461-0.4629745
				c-0.9055481,0-1.7007751,0.2151413-2.3870544,0.6440811c-0.6863098,0.4302902-1.2173767,1.0253525-1.5945435,1.7865448
				c-0.3771973,0.7625504-0.5651245,1.6558228-0.5651245,2.6811829c0,1.0852661,0.3118286,1.926796,0.9382324,2.5218582
				c0.6263733,0.5964203,1.5795593,0.8932724,2.8609009,0.8932724c0.7543945,0,1.455658-0.1239166,2.1038208-0.3731079
				c0.6481628-0.2491837,1.1846924-0.5841675,1.6068115-1.0062866l0.9273071,1.5605011
				c-0.5732727,0.5582962-1.2895203,0.9845047-2.1487427,1.2786331
				C410.7690735,95.5936508,409.8798828,95.740715,408.9607239,95.740715z"/>
			<path class="st0" d="M418.1889648,95.604538l2.3747864-11.9883728h2.0806885l-0.6781311,3.483223l-0.2260437-0.85923
				c0.5569153-1.0103836,1.2663574-1.7198257,2.1256104-2.126976c0.8605957-0.4071426,1.922699-0.6100388,3.1904602-0.6100388
				l-0.4071655,2.1038208c-0.091217-0.0149765-0.1810913-0.0231476-0.2723389-0.0231476c-0.0898743,0-0.1878967,0-0.2941284,0
				c-1.1914673,0-2.1746216,0.3240814-2.9521484,0.9722519c-0.7761841,0.6495285-1.300415,1.6667175-1.5714111,3.0542831
				l-1.1982727,5.9941864H418.1889648z"/>
			<path class="st0" d="M432.3505859,95.740715c-1.010376,0-1.9649048-0.1320877-2.8609009-0.3962555
				c-0.8973694-0.2641678-1.587738-0.5923386-2.0697937-0.9845047l0.9722595-1.7184677
				c0.4670715,0.3622131,1.0743713,0.6563416,1.8205872,0.8823853c0.7462158,0.2260361,1.5264587,0.3390579,2.3407593,0.3390579
				c1.041687,0,1.8246765-0.157959,2.3529968-0.4752274c0.5283508-0.315918,0.7911682-0.7462158,0.7911682-1.2895279
				c0-0.3921738-0.157959-0.6890182-0.473877-0.8932724c-0.3172913-0.2028961-0.7285156-0.3622131-1.2337036-0.475235
				s-1.0444336-0.2260437-1.616333-0.3390656c-0.5732727-0.1130142-1.108429-0.2750626-1.6068115-0.4861221
				c-0.4970093-0.2110596-0.9082336-0.5160828-1.2323303-0.91642c-0.3240662-0.3989792-0.4861145-0.9314041-0.4861145-1.5945511
				c0-0.7993164,0.2260437-1.4883347,0.6781311-2.0697784c0.4520569-0.5800781,1.0852661-1.0294418,1.8995667-1.3453522
				c0.81427-0.317276,1.76474-0.475235,2.8500061-0.475235c0.7843323,0,1.5578003,0.093956,2.3189697,0.2818756
				c0.7612,0.18927,1.3834839,0.4575272,1.8668823,0.8033981l-0.8605652,1.7198257
				c-0.4970398-0.3472366-1.0553284-0.5923386-1.6735535-0.735321c-0.6181946-0.1429749-1.2364197-0.2151489-1.8546143-0.2151489
				c-1.010376,0-1.7715759,0.1702118-2.2849426,0.5092773c-0.5119934,0.3390656-0.7693481,0.765274-0.7693481,1.2772751
				c0,0.3921661,0.1593323,0.6985474,0.4752502,0.91642c0.3172607,0.2192307,0.7271423,0.3880844,1.2336731,0.5092697
				c0.5038452,0.1211929,1.0403442,0.2369385,1.6054382,0.3499603c0.5651245,0.1130219,1.1002502,0.2723389,1.6054382,0.4752274
				c0.505188,0.2042542,0.9164429,0.4983826,1.2337036,0.8823853c0.315918,0.3839951,0.4752502,0.9082489,0.4752502,1.5713959
				c0,0.8306351-0.2301331,1.5346298-0.6903992,2.1160736c-0.4602356,0.5800858-1.1043396,1.0212708-1.9335938,1.3222122
				C434.393158,95.5895615,433.4358826,95.740715,432.3505859,95.740715z"/>
		</g>
	</g>
	<g>
		
			<linearGradient id="SVGID_1_" gradientUnits="userSpaceOnUse" x1="0" y1="636.694458" x2="121.662056" y2="636.694458" gradientTransform="matrix(1 0 0 1 0 -570.2592773)">
			<stop  offset="0" style="stop-color:#FF0DBC"/>
			<stop  offset="1" style="stop-color:#FF7D00"/>
		</linearGradient>
		<path class="st1" d="M48.5284119,3.2964768L12.3026047,24.2114639C4.689724,28.6067638-0.0000049,36.7296143,0,45.5202103
			l0.0000049,41.8299484c0,8.7906036,4.689734,16.9134521,12.3026142,21.308754l36.225811,20.9149704
			c7.6128807,4.3952942,16.9923363,4.3952942,24.6052208,0l36.2258072-20.9149933
			c7.6128693-4.3953018,12.302597-12.5181503,12.302597-21.3087463V45.5201912
			c0-8.7905998-4.689743-16.9134483-12.3026123-21.3087482L73.1336288,3.2964733
			C65.520752-1.0988258,56.1412926-1.0988243,48.5284119,3.2964768z"/>
		<g>
			<g>
				<path class="st0" d="M33.6788979,98.0762634c1.4736671-6.6409302,2.9229279-13.1718674,4.4088974-19.8682556
					c-5.9510117,0-11.7797337,0-17.7538242,0c0.369524-1.68293,0.6739349-3.2042313,1.0407982-4.7102966
					c0.637476-2.6169968,1.0439625-5.3333282,2.0419941-7.8084335c1.2329884-3.0578041,3.8194199-4.8458023,7.1527119-4.9034424
					c7.5193691-0.1300354,15.0422344-0.0554962,22.5636806-0.0676117
					c8.0091896-0.0129051,16.0183792-0.0302124,24.0275879-0.0413551c0.1543503-0.0002136,0.3087997,0.0520248,0.5795059,0.1007156
					c-0.4205627,1.941494-0.8075485,3.8469505-1.2501221,5.739399c-0.4952011,2.1175766-0.8095627,4.3167801-1.6159439,6.3134537
					c-1.3787842,3.4139786-4.1152267,5.2189941-7.8189926,5.3114395c-3.3517456,0.0836639-6.7075424,0.0433884-10.0608597,0.0013962
					c-0.9183922-0.0114975-1.3589516,0.1985931-1.5628204,1.2077408c-0.7919006,3.9198837-1.7091141,7.8143082-2.566349,11.7211456
					c-0.929863,4.2377853-3.9447021,6.9396667-8.2598305,7.1035309c-3.4461365,0.1308594-6.9016953,0.0147324-10.353054,0.0029602
					C34.0981102,98.1781158,33.9441299,98.1252747,33.6788979,98.0762634z"/>
				<path class="st0" d="M43.9404678,52.0461578c0.2499161-1.1443329,0.487175-2.2456665,0.7313156-3.3454742
					c0.5357132-2.4133987,1.0568275-4.8302307,1.616787-7.2380142c0.9262428-3.9828339,4.3681488-6.8057785,8.4456596-6.8128586
					c15.3360825-0.0266342,30.6722488-0.0141563,46.0083847-0.012394c0.1533051,0.0000153,0.3065948,0.0532646,0.5854797,0.1049232
					c-0.3475494,1.6197586-0.6762314,3.1997452-1.0271301,4.7747803c-0.4455872,1.9999313-0.8855133,4.0016098-1.3700943,5.9922562
					c-0.9242554,3.7967796-4.2816391,6.5995979-8.1910629,6.6110878
					c-15.4016571,0.0452538-30.8035431,0.0218163-46.2053528,0.020359
					C44.3803864,52.1408081,44.2263145,52.0932312,43.9404678,52.0461578z"/>
			</g>
		</g>
	</g>
</g>
</svg>
